<svg xmlns="http://www.w3.org/2000/svg" viewBox="0 0 200 120" fill="none">
  <!-- Orange Meeple -->
  <g transform="translate(20, 10)">
    <path d="M25 100 L25 60 C25 55 20 50 15 50 L10 50 C5 50 0 45 0 40 L0 35 C0 25 8 20 15 20 C15 10 20 0 30 0 C40 0 45 10 45 20 C52 20 60 25 60 35 L60 40 C60 45 55 50 50 50 L45 50 C40 50 35 55 35 60 L35 100 Z" fill="#ea580c" opacity="0.9"/>
    <circle cx="30" cy="15" r="8" fill="#ea580c"/>
  </g>

  <!-- Teal Meeple -->
  <g transform="translate(70, 20)">
    <path d="M20 80 L20 48 C20 44 16 40 12 40 L8 40 C4 40 0 36 0 32 L0 28 C0 20 6.4 16 12 16 C12 8 16 0 24 0 C32 0 36 8 36 16 C41.6 16 48 20 48 28 L48 32 C48 36 44 40 40 40 L36 40 C32 40 28 44 28 48 L28 80 Z" fill="#0d9488" opacity="0.85"/>
    <circle cx="24" cy="12" r="6.4" fill="#0d9488"/>
  </g>

  <!-- Green Meeple -->
  <g transform="translate(130, 15)">
    <path d="M22.5 90 L22.5 54 C22.5 49.5 18 45 13.5 45 L9 45 C4.5 45 0 40.5 0 36 L0 31.5 C0 22.5 7.2 18 13.5 18 C13.5 9 18 0 27 0 C36 0 40.5 9 40.5 18 C46.8 18 54 22.5 54 31.5 L54 36 C54 40.5 49.5 45 45 45 L40.5 45 C36 45 31.5 49.5 31.5 54 L31.5 90 Z" fill="#3f704d" opacity="0.85"/>
    <circle cx="27" cy="13.5" r="7.2" fill="#3f704d"/>
  </g>

  <!-- Decorative dice -->
  <g transform="translate(160, 70)">
    <rect x="0" y="0" width="28" height="28" rx="4" fill="#2d2d2a" opacity="0.15" transform="rotate(15)"/>
    <circle cx="8" cy="8" r="2" fill="#2d2d2a" opacity="0.2" transform="rotate(15)"/>
    <circle cx="20" cy="20" r="2" fill="#2d2d2a" opacity="0.2" transform="rotate(15)"/>
  </g>
</svg>
